<?xml version="1.0" standalone="no"?>
<!DOCTYPE svg PUBLIC "-//W3C//DTD SVG 20010904//EN"
 "http://www.w3.org/TR/2001/REC-SVG-20010904/DTD/svg10.dtd">
<svg version="1.0" xmlns="http://www.w3.org/2000/svg"
 width="357.000000pt" height="357.000000pt" viewBox="0 0 357.000000 357.000000"
 preserveAspectRatio="xMidYMid meet">
<metadata>
Created by potrace 1.11, written by Peter Selinger 2001-2013
</metadata>
<g transform="translate(0.000000,357.000000) scale(0.100000,-0.100000)"
fill="#000000" stroke="none">
<path d="M2020 3471 c-36 -43 -105 -128 -155 -189 l-90 -112 -50 -1 c-27 0
-57 -2 -65 -3 -8 -2 -41 -6 -73 -10 -121 -13 -263 -54 -393 -115 -77 -36 -202
-106 -214 -120 -3 -4 -30 -25 -60 -47 -75 -56 -188 -173 -260 -269 -54 -72
-180 -302 -180 -329 0 -6 -82 -40 -183 -75 -100 -35 -206 -73 -235 -84 l-53
-19 34 -26 c81 -62 347 -285 347 -291 1 -3 3 -40 5 -82 4 -65 15 -136 39 -248
24 -109 118 -320 192 -429 141 -206 313 -355 543 -470 l134 -67 81 -232 c73
-210 82 -230 96 -215 8 10 32 38 53 64 21 26 43 53 50 60 7 7 50 60 97 118 46
58 89 110 95 116 7 7 49 15 96 18 103 7 117 10 247 42 388 96 728 377 903 748
55 118 21 95 289 189 85 30 172 60 193 67 20 6 35 15 32 19 -2 5 -37 35 -77
67 -40 33 -79 66 -88 74 -9 8 -36 31 -60 50 -24 19 -70 57 -102 83 l-58 48 -1
62 c-1 70 -3 91 -25 199 -81 410 -355 769 -732 960 -53 26 -101 48 -108 48 -6
0 -16 6 -22 13 -10 11 -64 158 -144 392 -11 33 -23 63 -27 67 -4 5 -36 -27
-71 -71z m-15 -536 c428 -92 772 -408 889 -816 22 -78 29 -111 42 -199 6 -44
5 -203 -1 -260 -31 -272 -159 -528 -358 -716 -378 -360 -941 -425 -1397 -163
-98 56 -254 192 -317 276 -15 21 -31 40 -34 43 -16 13 -86 132 -120 205 -152
323 -137 728 38 1045 136 246 356 437 614 533 90 34 205 63 279 70 82 9 290
-1 365 -18z"/>
<path d="M1729 2846 c0 -6 -2 -20 -4 -31 -2 -11 -9 -47 -14 -80 -6 -33 -13
-71 -16 -85 -2 -13 -11 -63 -20 -110 -8 -47 -17 -95 -19 -107 -5 -22 4 -27 76
-38 l35 -6 16 83 c9 46 19 102 22 125 4 24 10 45 14 47 3 3 22 -26 41 -62 113
-219 121 -230 165 -238 77 -14 73 -17 86 60 7 39 24 139 39 221 l27 150 -56
11 c-31 6 -57 10 -58 10 -3 -2 -11 -46 -30 -158 -9 -54 -20 -98 -24 -98 -4 0
-25 35 -47 78 -22 42 -57 109 -78 148 l-38 71 -58 9 c-40 7 -58 7 -59 0z"/>
<path d="M2479 2286 c-2 -3 -16 -7 -29 -10 -14 -2 -162 -37 -330 -76 -168 -40
-354 -83 -415 -97 -60 -14 -116 -30 -123 -36 -7 -6 -93 -128 -190 -271 -97
-144 -216 -319 -264 -390 -48 -72 -86 -131 -85 -132 2 -2 99 22 217 52 118 30
224 57 235 59 11 3 115 29 230 59 116 29 217 55 225 57 18 5 30 20 102 124 93
136 141 204 200 289 180 257 258 376 245 376 -7 0 -16 -2 -18 -4z m-646 -297
c81 -22 147 -111 147 -199 0 -124 -106 -219 -229 -206 -109 10 -194 111 -185
218 12 139 134 224 267 187z"/>
</g>
</svg>
