<?xml version="1.0" encoding="UTF-8"?>
<svg width="440px" height="170px" viewBox="0 0 440 170" version="1.1" xmlns="http://www.w3.org/2000/svg" xmlns:xlink="http://www.w3.org/1999/xlink">
    <!-- Generator: Sketch 43.2 (39069) - http://www.bohemiancoding.com/sketch -->
    <title>Neo Logo Outline</title>
    <desc>Created with Sketch.</desc>
    <defs></defs>
    <g id="Page-1" stroke="none" stroke-width="1" fill="none" fill-rule="evenodd">
        <g id="Neo-Logo-Outline" fill="#F56923">
            <path d="M7,162.910004 L433,162.910004 L433,7.1000061 L7,7.1000061 L7,162.910004 Z M0,0.100006104 L440,0.100006104 L440,169.910004 L0,169.910004 L0,0.100006104 Z" id="Rectangle-3-Copy" fill-rule="nonzero"></path>
            <g id="Compass" transform="translate(107.579228, 84.094420) rotate(10.000000) translate(-107.579228, -84.094420) translate(47.079228, 24.094420)">
                <path d="M60,99 C81.5391052,99 99,81.5391052 99,60 C99,38.4608948 81.5391052,21 60,21 C38.4608948,21 21,38.4608948 21,60 C21,81.5391052 38.4608948,99 60,99 Z M60,106 C34.5949015,106 14,85.4050985 14,60 C14,34.5949015 34.5949015,14 60,14 C85.4050985,14 106,34.5949015 106,60 C106,85.4050985 85.4050985,106 60,106 Z" id="Oval" fill-rule="nonzero"></path>
                <path d="M64.8002948,65.0948444 L67.9771425,68.3845665 L81.4377441,39.2268066 L52,51.8397511 L55.0758001,55.0248353 C56.3404807,53.7730294 58.079965,53 60,53 C63.8659932,53 67,56.1340068 67,60 C67,62.0079168 66.1545865,63.8183767 64.8002948,65.0948444 Z" id="Combined-Shape"></path>
                <path d="M55.1100841,54.9911312 L52.052002,51.8308105 L38.8173828,81.3719482 L67.9313965,68.2410889 L64.8454164,65.0519375 C63.5877538,66.2585009 61.8804701,67 60,67 C56.1340068,67 53,63.8659932 53,60 C53,58.0367501 53.8082187,56.2622699 55.1100841,54.9911312 Z" id="Combined-Shape"></path>
                <polygon id="N" points="52.4840327 40.3321041 56.4040327 40.3321041 56.4040327 31.0921041 56.4440327 31.0921041 63.6240327 40.3321041 67.5440327 40.3321041 67.5440327 25.2521041 63.6240327 25.2521041 63.6240327 34.4721041 63.5840327 34.4721041 56.4040327 25.2521041 52.4840327 25.2521041"></polygon>
                <polygon id="Triangle" points="60.1678959 0.204032672 70.6678959 18.8706993 49.6678959 18.8706993"></polygon>
                <polygon id="Triangle-Copy" transform="translate(110.667896, 60.037366) rotate(90.000000) translate(-110.667896, -60.037366) " points="110.667896 50.7040327 121.167896 69.3706993 100.167896 69.3706993"></polygon>
                <polygon id="Triangle-Copy-2" transform="translate(60.167896, 110.537366) rotate(180.000000) translate(-60.167896, -110.537366) " points="60.1678959 101.204033 70.6678959 119.870699 49.6678959 119.870699"></polygon>
                <polygon id="Triangle-Copy-4" transform="translate(9.667896, 60.037366) rotate(-90.000000) translate(-9.667896, -60.037366) " points="9.66789589 50.7040327 20.1678959 69.3706993 -0.832104108 69.3706993"></polygon>
            </g>
            <path d="M350.363074,65.16 C367.163074,65.16 380.363074,78.12 380.363074,95.04 C380.363074,111.96 367.163074,124.92 350.363074,124.92 C333.563074,124.92 320.363074,111.96 320.363074,95.04 C320.363074,78.12 333.563074,65.16 350.363074,65.16 Z M350.363074,75.48 C339.683074,75.48 331.163074,84.36 331.163074,95.04 C331.163074,105.6 339.683074,114.6 350.363074,114.6 C361.043074,114.6 369.563074,105.6 369.563074,95.04 C369.563074,84.36 361.043074,75.48 350.363074,75.48 Z" id="o"></path>
            <path d="M277.62256,111.563965 C280.710643,113.427681 284.330101,114.5 288.200012,114.5 C294.863548,114.5 300.784518,111.320701 304.528769,106.396258 L313.714244,111.083753 C308.228322,119.236521 298.915508,124.599998 288.349987,124.599998 C271.477688,124.599998 257.799988,110.922298 257.799988,94.0499992 C257.799988,77.1777006 271.477688,63.5 288.349987,63.5 C298.857963,63.5 308.12684,68.8052116 313.624266,76.8832818 L313.622986,76.8844976 L313.727478,76.9897461 L277.62256,111.563965 Z M270.381494,104.143724 L299.338882,76.7873535 C296.131847,74.7077078 292.306967,73.5 288.200012,73.5 C276.878175,73.5 267.700012,82.6781626 267.700012,94 C267.700012,97.6901571 268.675028,101.152587 270.381494,104.143724 Z" id="Combined-Shape"></path>
            <polygon id="Path" points="175.705074 123 185.951074 123 185.951074 61.742 247.645074 126.379 247.645074 40.814 237.399074 40.814 237.399074 101.527 175.705074 36.89"></polygon>
        </g>
    </g>
</svg>