<?xml version="1.0" encoding="UTF-8"?>
<svg width="440px" height="170px" viewBox="0 0 440 170" version="1.1" xmlns="http://www.w3.org/2000/svg" xmlns:xlink="http://www.w3.org/1999/xlink">
    <!-- Generator: Sketch 43.2 (39069) - http://www.bohemiancoding.com/sketch -->
    <title>Neo Logo Negative</title>
    <desc>Created with Sketch.</desc>
    <defs></defs>
    <g id="Page-1" stroke="none" stroke-width="1" fill="none" fill-rule="evenodd">
        <g id="Neo-Logo-Negative" transform="translate(-42.000000, -49.000000)" fill="#FFFFFF">
            <path d="M49,212 L475,212 L475,56 L49,56 L49,212 Z M42,49 L482,49 L482,219 L42,219 L42,49 Z" id="Stroke" fill-rule="nonzero"></path>
            <g id="Compass" transform="translate(149.579228, 133.094420) rotate(10.000000) translate(-149.579228, -133.094420) translate(89.079228, 73.094420)">
                <path d="M60,99 C81.5391052,99 99,81.5391052 99,60 C99,38.4608948 81.5391052,21 60,21 C38.4608948,21 21,38.4608948 21,60 C21,81.5391052 38.4608948,99 60,99 Z M60,106 C34.5949015,106 14,85.4050985 14,60 C14,34.5949015 34.5949015,14 60,14 C85.4050985,14 106,34.5949015 106,60 C106,85.4050985 85.4050985,106 60,106 Z" id="Oval" fill-rule="nonzero"></path>
                <path d="M64.8002948,65.0948444 L67.9771425,68.3845665 L81.4377441,39.2268066 L52,51.8397511 L55.0758001,55.0248353 C56.3404807,53.7730294 58.079965,53 60,53 C63.8659932,53 67,56.1340068 67,60 C67,62.0079168 66.1545865,63.8183767 64.8002948,65.0948444 Z" id="Combined-Shape"></path>
                <path d="M55.1100841,54.9911312 L52.052002,51.8308105 L38.8173828,81.3719482 L67.9313965,68.2410889 L64.8454164,65.0519375 C63.5877538,66.2585009 61.8804701,67 60,67 C56.1340068,67 53,63.8659932 53,60 C53,58.0367501 53.8082187,56.2622699 55.1100841,54.9911312 Z" id="Combined-Shape"></path>
                <polygon id="N" points="52.4840327 40.3321041 56.4040327 40.3321041 56.4040327 31.0921041 56.4440327 31.0921041 63.6240327 40.3321041 67.5440327 40.3321041 67.5440327 25.2521041 63.6240327 25.2521041 63.6240327 34.4721041 63.5840327 34.4721041 56.4040327 25.2521041 52.4840327 25.2521041"></polygon>
                <polygon id="Triangle" points="60.1678959 0.204032672 70.6678959 18.8706993 49.6678959 18.8706993"></polygon>
                <polygon id="Triangle-Copy" transform="translate(110.667896, 60.037366) rotate(90.000000) translate(-110.667896, -60.037366) " points="110.667896 50.7040327 121.167896 69.3706993 100.167896 69.3706993"></polygon>
                <polygon id="Triangle-Copy-2" transform="translate(60.167896, 110.537366) rotate(180.000000) translate(-60.167896, -110.537366) " points="60.1678959 101.204033 70.6678959 119.870699 49.6678959 119.870699"></polygon>
                <polygon id="Triangle-Copy-4" transform="translate(9.667896, 60.037366) rotate(-90.000000) translate(-9.667896, -60.037366) " points="9.66789589 50.7040327 20.1678959 69.3706993 -0.832104108 69.3706993"></polygon>
            </g>
            <path d="M392.363074,114.16 C409.163074,114.16 422.363074,127.12 422.363074,144.04 C422.363074,160.96 409.163074,173.92 392.363074,173.92 C375.563074,173.92 362.363074,160.96 362.363074,144.04 C362.363074,127.12 375.563074,114.16 392.363074,114.16 Z M392.363074,124.48 C381.683074,124.48 373.163074,133.36 373.163074,144.04 C373.163074,154.6 381.683074,163.6 392.363074,163.6 C403.043074,163.6 411.563074,154.6 411.563074,144.04 C411.563074,133.36 403.043074,124.48 392.363074,124.48 Z" id="o"></path>
            <path d="M319.62256,160.563965 C322.710643,162.427681 326.330101,163.5 330.200012,163.5 C336.863548,163.5 342.784518,160.320701 346.528769,155.396258 L355.714244,160.083753 C350.228322,168.236521 340.915508,173.599998 330.349987,173.599998 C313.477688,173.599998 299.799988,159.922298 299.799988,143.049999 C299.799988,126.177701 313.477688,112.5 330.349987,112.5 C340.857963,112.5 350.12684,117.805212 355.624266,125.883282 L355.622986,125.884498 L355.727478,125.989746 L319.62256,160.563965 Z M312.381494,153.143724 L341.338882,125.787354 C338.131847,123.707708 334.306967,122.5 330.200012,122.5 C318.878175,122.5 309.700012,131.678163 309.700012,143 C309.700012,146.690157 310.675028,150.152587 312.381494,153.143724 Z" id="Combined-Shape"></path>
            <polygon id="Path" points="217.705074 172 227.951074 172 227.951074 110.742 289.645074 175.379 289.645074 89.814 279.399074 89.814 279.399074 150.527 217.705074 85.89"></polygon>
        </g>
    </g>
</svg>