<?xml version="1.0" encoding="utf-8"?>
<!-- Generator: Adobe Illustrator 21.0.0, SVG Export Plug-In . SVG Version: 6.00 Build 0)  -->
<svg version="1.1" id="Layer_1" xmlns="http://www.w3.org/2000/svg" xmlns:xlink="http://www.w3.org/1999/xlink" x="0px" y="0px"
	 viewBox="0 0 440 170" style="enable-background:new 0 0 440 170;" xml:space="preserve">
<style type="text/css">
	.st0{fill:#FFFFFF;}
</style>
<path id="Rectangle-3-Copy" class="st0" d="M7,162.9h426V7.1H7V162.9z M0,0.1h440v169.8H0V0.1z"/>
<g>
	<path class="st0" d="M77.3,68.5c-2.3-0.7-4.4-1-6.4-1c-2.7,0-4.8,0.5-6.4,1.6c-1.6,1-2.4,2.5-2.4,4.3c0,1.6,0.5,3,1.5,4
		c1,1,2.2,1.9,3.6,2.4c1.4,0.6,3.4,1.3,5.9,2.1c3.1,1,5.7,1.9,7.6,2.8c1.9,0.9,3.6,2.2,4.9,3.9c1.4,1.7,2,4,2,6.9
		c0,2.6-0.7,5-2.1,6.9c-1.4,2-3.4,3.5-6,4.6c-2.6,1.1-5.5,1.6-8.9,1.6c-3.4,0-6.7-0.7-9.9-2c-3.2-1.3-6-3.1-8.3-5.3l2.8-5.5
		c2.2,2.2,4.7,3.8,7.4,5c2.7,1.2,5.4,1.8,8,1.8c3.1,0,5.5-0.6,7.3-1.8c1.8-1.2,2.7-2.9,2.7-4.9c0-1.6-0.5-3-1.5-4
		c-1-1.1-2.2-1.9-3.7-2.5c-1.5-0.6-3.5-1.3-6-2c-3.1-0.9-5.6-1.8-7.5-2.7c-1.9-0.9-3.6-2.2-4.9-3.9c-1.3-1.7-2-4-2-6.8
		c0-2.5,0.7-4.6,2-6.5c1.4-1.9,3.3-3.3,5.7-4.4c2.5-1,5.3-1.5,8.6-1.5c2.8,0,5.5,0.4,8.2,1.2c2.7,0.8,5,1.9,7.1,3.3L84,71.6
		C81.8,70.2,79.6,69.2,77.3,68.5z"/>
	<path class="st0" d="M128.8,66c3.1,2.7,4.7,6.6,4.7,11.5c0,5.2-1.6,9.2-4.8,12c-3.2,2.8-7.6,4.3-13.3,4.3H104v14.4h-6.3V61.9h17.8
		C121.2,61.9,125.7,63.3,128.8,66z M124.3,85.4c2.1-1.7,3.2-4.3,3.2-7.7c0-3.3-1.1-5.8-3.2-7.5c-2.1-1.7-5.1-2.5-9.1-2.5L104,67.7
		V88h11.2C119.2,88,122.2,87.1,124.3,85.4z"/>
	<path class="st0" d="M173.5,108.2l-4.9-11.2h-24.4l-4.8,11.2h-6.7l20.5-46.3h6.6l20.5,46.3H173.5z M146.8,91.2h19.4l-9.8-22.5
		L146.8,91.2z"/>
	<path class="st0" d="M213.3,68.7c-2.3-1-4.7-1.6-7.2-1.6c-3.3,0-6.2,0.8-9,2.4c-2.7,1.6-4.9,3.7-6.5,6.4s-2.4,5.7-2.4,9
		c0,3.2,0.8,6.2,2.4,8.9c1.6,2.7,3.7,4.9,6.5,6.5c2.7,1.6,5.7,2.4,9,2.4c2.4,0,4.8-0.5,7.1-1.5c2.3-1,4.4-2.3,6.2-4.1l3.8,4.2
		c-2.3,2.3-5,4.1-8.1,5.4c-3.1,1.3-6.2,1.9-9.4,1.9c-4.4,0-8.4-1-12.1-3.1c-3.7-2.1-6.5-4.9-8.6-8.6c-2.1-3.6-3.2-7.6-3.2-12
		c0-4.3,1.1-8.3,3.2-11.9c2.1-3.6,5-6.4,8.7-8.5c3.7-2.1,7.8-3.1,12.2-3.1c3.2,0,6.3,0.6,9.3,1.8c3,1.2,5.6,2.9,7.8,5.1l-3.8,4.6
		C217.7,71.2,215.7,69.7,213.3,68.7z"/>
	<path class="st0" d="M232.1,61.9h6.3v46.3h-6.3V61.9z"/>
	<path class="st0" d="M284.1,64.6c3.7,2.1,6.7,4.9,8.8,8.5c2.2,3.6,3.2,7.5,3.2,11.9c0,4.3-1.1,8.3-3.2,11.9
		c-2.2,3.6-5.1,6.5-8.8,8.6c-3.7,2.1-7.8,3.1-12.2,3.1c-4.4,0-8.5-1-12.2-3.1c-3.7-2.1-6.7-5-8.8-8.6c-2.2-3.6-3.2-7.6-3.2-11.9
		c0-4.3,1.1-8.3,3.2-11.9c2.2-3.6,5.1-6.4,8.8-8.5c3.7-2.1,7.8-3.1,12.3-3.1C276.3,61.5,280.4,62.5,284.1,64.6z M263,69.6
		c-2.8,1.6-4.9,3.7-6.6,6.4s-2.4,5.7-2.4,9c0,3.3,0.8,6.3,2.4,9c1.6,2.7,3.8,4.9,6.6,6.5c2.7,1.6,5.7,2.4,8.9,2.4
		c3.2,0,6.2-0.8,8.9-2.4c2.7-1.6,4.9-3.8,6.5-6.5c1.6-2.7,2.4-5.7,2.4-9c0-3.3-0.8-6.2-2.4-9c-1.6-2.7-3.8-4.9-6.5-6.4
		c-2.7-1.6-5.7-2.4-8.9-2.4C268.7,67.2,265.7,68,263,69.6z"/>
	<path class="st0" d="M314.1,99.3c2.4,2.4,5.6,3.6,9.7,3.6c4.1,0,7.3-1.2,9.6-3.6c2.3-2.4,3.5-5.7,3.5-10V61.9h6.3v27.4
		c0,6-1.7,10.8-5.2,14.2c-3.5,3.4-8.2,5.2-14.3,5.2c-6.1,0-10.9-1.7-14.4-5.2c-3.5-3.4-5.2-8.2-5.2-14.2V61.9h6.3v27.4
		C310.6,93.5,311.8,96.9,314.1,99.3z"/>
	<path class="st0" d="M375.9,68.5c-2.3-0.7-4.4-1-6.4-1c-2.7,0-4.8,0.5-6.4,1.6c-1.6,1-2.4,2.5-2.4,4.3c0,1.6,0.5,3,1.5,4
		c1,1,2.2,1.9,3.6,2.4c1.4,0.6,3.4,1.3,5.9,2.1c3.1,1,5.7,1.9,7.6,2.8c1.9,0.9,3.6,2.2,5,3.9c1.4,1.7,2,4,2,6.9c0,2.6-0.7,5-2.1,6.9
		s-3.4,3.5-6,4.6c-2.6,1.1-5.5,1.6-8.9,1.6c-3.4,0-6.7-0.7-9.9-2c-3.2-1.3-6-3.1-8.3-5.3l2.8-5.5c2.2,2.2,4.7,3.8,7.4,5
		c2.8,1.2,5.4,1.8,8,1.8c3.1,0,5.5-0.6,7.3-1.8c1.8-1.2,2.7-2.9,2.7-4.9c0-1.6-0.5-3-1.5-4c-1-1.1-2.2-1.9-3.7-2.5
		c-1.5-0.6-3.5-1.3-6-2c-3.1-0.9-5.6-1.8-7.5-2.7c-1.9-0.9-3.6-2.2-4.9-3.9c-1.3-1.7-2-4-2-6.8c0-2.5,0.7-4.6,2-6.5
		c1.4-1.9,3.3-3.3,5.7-4.4c2.5-1,5.3-1.5,8.6-1.5c2.8,0,5.5,0.4,8.2,1.2c2.7,0.8,5,1.9,7.1,3.3l-2.6,5.7
		C380.4,70.2,378.2,69.2,375.9,68.5z"/>
</g>
</svg>
